<?xml version="1.0" encoding="utf-8"?><!-- Generator: Adobe Illustrator 23.0.2, SVG Export Plug-In . SVG Version: 6.00 Build 0)  -->
<svg version="1.1" id="Layer_1" xmlns="http://www.w3.org/2000/svg"
    xmlns:xlink="http://www.w3.org/1999/xlink" x="0px" y="0px" viewBox="0 0 595.28 595.28"
    style="enable-background:new 0 0 595.28 595.28;" xml:space="preserve">
<g>
	<rect x="25.68" y="102.26" width="543.91" height="22.18" />
    <path d="M569.59,474.65h-46.22V145.47h14.35v-13.09H57.55v13.09H71.9v329.18H25.68v22.18h543.91V474.65z M126.35,451.61v10.13
		H94.63V250.78c0-42.93,34.8-77.73,77.73-77.73s77.73,34.8,77.73,77.73v210.96h-31.73v-10.13H126.35z M319.61,166.65v8.66h-17.64
		v43.06h-8.66v-43.06h-17.64v-8.66h17.64v-15.54h8.66v15.54C301.97,166.65,319.61,166.65,319.61,166.65z M329.47,257.28v99h-10v-99
		H329.47z M302.64,257.28v99h-10v-99H302.64z M275.8,257.28v99h-10v-99H275.8z M375.69,451.61v10.13h-30.5V250.78
		c0-42.93,34.8-77.73,77.73-77.73c42.93,0,77.73,34.8,77.73,77.73v210.96h-32.96v-10.13H375.69z" />
    <path d="M208.16,354.81c-3.29,3.28-7.18,6.45-11.76,9.54c-1.66,1.12-3.59,1.71-5.58,1.71c-3.34,0-6.44-1.65-8.3-4.41
		c-3.08-4.57-1.87-10.8,2.7-13.88c6.18-4.16,10.67-8.4,13.35-12.6c0.31-0.48,0.58-0.96,0.83-1.42v-19.42
		c2.41,3.65,4.12,7.81,4.08,11.86c-0.02,2.99-0.76,6.17-3.22,10.05c-2.47,3.86-6.78,8.38-13.92,13.18
		c-3.66,2.47-4.63,7.44-2.16,11.11c1.54,2.29,4.07,3.53,6.64,3.53c1.54,0,3.09-0.44,4.46-1.37c8.46-5.71,14.48-11.63,18.45-17.83
		c3.98-6.17,5.77-12.67,5.74-18.68c0-5.57-1.45-10.62-3.47-14.92c-3.04-6.46-7.31-11.38-10.8-14.83c-3.5-3.43-6.27-5.37-6.54-5.56
		c-1.2-0.83-2.54-1.28-3.89-1.39c-3.29,3.2-7.39,5.46-11.97,6.52c-1.91,0.44-3.86,0.67-5.8,0.67c-7.1,0-13.59-2.91-18.25-7.7h-5.29
		c-1.73-0.1-3.5,0.35-5.04,1.41c-0.27,0.19-3.04,2.13-6.54,5.56c-3.49,3.45-7.76,8.37-10.8,14.83c-2.02,4.3-3.47,9.35-3.47,14.92
		c-0.02,6.01,1.77,12.51,5.74,18.68c3.97,6.19,9.99,12.11,18.45,17.83c1.37,0.92,2.93,1.37,4.46,1.37c2.57,0,5.1-1.24,6.64-3.53
		c2.47-3.66,1.5-8.64-2.16-11.11c-7.14-4.81-11.45-9.32-13.92-13.18c-2.46-3.88-3.2-7.06-3.22-10.05c-0.03-2.52,0.63-5.08,1.7-7.54
		v8.15c0.55,3.71,2.07,6.57,3.21,8.36c2.68,4.2,7.17,8.44,13.35,12.6c4.57,3.08,5.78,9.31,2.7,13.88c-1.86,2.77-4.96,4.41-8.3,4.41
		c-1.99,0-3.93-0.59-5.58-1.71c-5.07-3.42-9.3-6.93-12.8-10.6c-1.76,1.89-3.32,4.04-4.59,6.42c-3.42,6.31-4.88,13.7-4.88,22.05
		c0.06,14.12,3.98,31.67,12.72,55.9c2.44,6.75,9.9,10.24,16.65,7.79c6.75-2.45,10.24-9.9,7.79-16.65
		c-8.24-22.62-11.21-38.02-11.16-47.04c0-4.56,0.7-7.35,1.37-8.89h33.13c0.67,1.57,1.37,4.33,1.37,8.89
		c0.05,9.01-2.91,24.42-11.16,47.04c-2.45,6.75,1.04,14.2,7.79,16.65c1.46,0.53,2.96,0.78,4.43,0.78c5.32,0,10.31-3.29,12.22-8.57v0
		c8.74-24.23,12.66-41.77,12.71-55.89c0-7.44-1.15-14.07-3.81-19.91C211.32,359.26,209.85,356.91,208.16,354.81z" />
    <ellipse transform="matrix(0.9742 -0.2259 0.2259 0.9742 -56.6773 46.9946)" cx="177.02"
        cy="271.17" rx="23.49" ry="23.49" />
    <rect x="159.98" y="378.28" width="23.5" height="8" />
    <rect x="220.98" y="378.28" width="23.5" height="8" />
    <rect x="350.67" y="378.28" width="23.5" height="8" />
    <rect x="471.67" y="378.28" width="23.5" height="8" />
    <rect x="100.23" y="378.28" width="23.5" height="8" />
    <path d="M389.59,431.09c0.8,2.35,1.63,4.75,2.52,7.23c2.45,6.75,9.9,10.24,16.65,7.79c5.14-1.86,8.38-6.63,8.56-11.78
		C408.58,433.87,398.3,432.48,389.59,431.09z" />
    <path d="M429.35,434.28c0.16,5.17,3.4,9.96,8.56,11.83c1.46,0.53,2.96,0.78,4.43,0.78c5.32,0,10.31-3.29,12.22-8.57v0
		c0.92-2.54,1.77-4.98,2.57-7.38C448.52,432.34,438.21,433.76,429.35,434.28z" />
    <path d="M434.16,347.24c1.55,2.29,4.07,3.53,6.64,3.53c1.54,0,3.09-0.44,4.46-1.37c1.7-1.15,3.3-2.3,4.8-3.47
		c-2.69-9.32-8.33-12.1-9.74-12.69c-1.23,0.95-2.56,1.92-4.01,2.89C432.65,338.6,431.68,343.58,434.16,347.24z" />
    <path d="M380.96,331.57c2.87,4.48,6.81,8.81,11.97,13.02c2.54-8.03,7.27-11.49,9.68-12.75c-3.84-3.2-6.46-6.21-8.17-8.89
		c-1.91-3.02-2.78-5.61-3.08-8.02h2.02c0.33,2.3,1.21,4.51,2.75,6.94c2.68,4.2,7.17,8.44,13.35,12.6c4.57,3.08,5.78,9.31,2.7,13.88
		c-1.86,2.77-4.96,4.41-8.3,4.41c-1.99,0-3.93-0.59-5.58-1.71c-3.36-2.27-6.34-4.57-9-6.93c0.02,1.44,0.04,2.9,0.07,4.4
		c-5.1,5.8-15.09,24-15.55,77.74c3.31,0.64,9.11,1.73,15.93,2.82c10.63,1.7,23.68,3.4,33.17,3.4s22.54-1.7,33.17-3.4
		c6.07-0.97,11.35-1.94,14.77-2.6c-0.16-19.78-1.61-34.76-3.63-46.08c-0.2-6.62-1.35-12.59-3.77-17.9c-0.73-1.6-1.57-3.12-2.52-4.55
		c-2.06-4.74-4.07-7.66-5.63-9.43c0.03-1.5,0.05-2.97,0.07-4.4c-2.66,2.36-5.64,4.67-9,6.93c-1.66,1.12-3.59,1.71-5.58,1.71
		c-3.34,0-6.44-1.65-8.3-4.41c-3.08-4.57-1.87-10.8,2.7-13.88c6.18-4.16,10.67-8.4,13.35-12.6c1.54-2.43,2.41-4.64,2.75-6.94h2.02
		c-0.3,2.41-1.17,5-3.08,8.02c-1.72,2.69-4.34,5.69-8.17,8.89c2.4,1.27,7.14,4.72,9.68,12.75c5.16-4.22,9.1-8.55,11.97-13.02
		c3.98-6.17,5.77-12.67,5.74-18.68c0-5.57-1.45-10.62-3.47-14.92c-3.05-6.46-7.31-11.38-10.8-14.83c-3.5-3.43-6.27-5.37-6.54-5.56
		c-1-0.69-2.1-1.12-3.23-1.31c-1.72,3.73-10.01,21.5-17.02,31.45l-1.64-1.15c3.82-5.42,8.12-13.4,11.46-20
		c2.27-4.51,4.1-8.37,5.03-10.37c-0.22,0.02-0.44,0.05-0.65,0.09c-0.31-0.04-0.62-0.06-0.94-0.06h-2.46
		c-4.4,6.56-11.88,10.89-20.36,10.89c-5.41,0-10.42-1.77-14.48-4.75c0.64,1.31,1.34,2.72,2.09,4.21c3.33,6.6,7.64,14.58,11.45,20
		l-1.64,1.15c-5.99-8.51-12.92-22.74-15.88-29.02c-0.64-0.73-1.23-1.49-1.78-2.3c-0.9,0.23-1.77,0.61-2.58,1.17
		c-0.27,0.19-3.04,2.13-6.54,5.56c-3.49,3.45-7.76,8.37-10.8,14.83c-2.02,4.3-3.47,9.35-3.47,14.92
		C375.2,318.91,376.99,325.4,380.96,331.57z M414.09,310.2h6.62v-5.83h3.25v5.83h6.62v3.25h-6.62v16.17h-3.25v-16.17h-6.62V310.2z" />
    <path d="M394.61,345.93c1.51,1.17,3.1,2.32,4.8,3.47c1.37,0.92,2.93,1.37,4.46,1.37c2.57,0,5.1-1.24,6.64-3.53
		c2.47-3.66,1.5-8.64-2.16-11.11c-1.45-0.98-2.78-1.94-4.01-2.9c-0.19,0.08-0.44,0.19-0.76,0.35c-0.71,0.37-1.7,0.97-2.78,1.92
		C398.67,337.38,396.16,340.57,394.61,345.93z" />
    <circle cx="418.84" cy="262.63" r="22.5" />
</g>
</svg>
