<svg
    xmlns="http://www.w3.org/2000/svg"
    viewBox="0 0 3000 3000"
    id="cross">
    <path
        id="path_15"
        d="M 1722.38 728.87 C 1751.36 728.87 1778.37 728.87 1805.37 728.87 C 1842.49 728.87 1879.62 728.44 1916.72 729.16 C 1927.65 729.37 1932.9 725.96 1937.95 716.04 C 1974.42 644.35 2032.3 601.94 2112.66 591.76 C 2209 579.55 2303.11 634.08 2341.1 724.72 C 2346 736.4 2352.77 742.77 2364.04 748.06 C 2449.73 788.32 2496.94 856.28 2496.99 950.89 C 2497.04 1045.51 2449.79 1113.4 2364.2 1153.82 C 2353.68 1158.79 2346.62 1164.26 2341.61 1175.46 C 2303.5 1260.64 2237.47 1308.11 2144.1 1310.97 C 2052.14 1313.78 1983.78 1271.07 1940.35 1190.29 C 1933.13 1176.86 1925.96 1172.74 1911.47 1172.92 C 1849.46 1173.7 1787.43 1173.25 1723.33 1173.25 C 1723 1179.76 1722.45 1185.58 1722.45 1191.4 C 1722.4 1594.72 1722.44 1998.05 1722.18 2401.37 C 1722.17 2412.65 1725.14 2418.75 1735.84 2424.18 C 1819.25 2466.55 1863.39 2535.88 1860.98 2628.61 C 1858.47 2725.04 1808.02 2792.45 1718.82 2830.59 C 1711.16 2833.87 1703.51 2841.06 1699.5 2848.42 C 1656.55 2927.2 1590.45 2970.95 1501.04 2970.99 C 1410.96 2971.04 1344.45 2927.01 1301.36 2847.56 C 1297.61 2840.65 1290.34 2833.97 1283.12 2830.89 C 1193.99 2792.91 1143.02 2725.8 1140.33 2629.33 C 1137.72 2535.9 1182.33 2466.34 1266.37 2423.71 C 1275.47 2419.09 1279.14 2414.12 1279.13 2403.66 C 1278.85 1998.67 1278.89 1593.69 1278.85 1188.7 C 1278.85 1184.35 1278.39 1179.99 1278.08 1174.4 C 1272.86 1173.99 1268.09 1173.3 1263.32 1173.29 C 1203.49 1173.2 1143.65 1173.44 1083.82 1172.99 C 1073.66 1172.91 1068.49 1175.95 1063.65 1185.34 C 1021 1268.16 952.87 1312.9 859.51 1310.99 C 763.18 1309.02 696.47 1259.43 657.21 1171.82 C 654.44 1165.65 648.11 1159.52 641.92 1156.66 C 553.53 1115.82 503.84 1047.39 504.38 949.81 C 504.91 853.07 554.39 785.08 642.54 745.03 C 648.67 742.25 654.69 735.78 657.45 729.56 C 695.88 642.89 762.36 593.57 856.64 590.58 C 950.97 587.58 1020.32 632.94 1064.39 716.67 C 1067 721.63 1072.92 728.26 1077.37 728.31 C 1143.75 729.06 1210.13 728.83 1278.68 728.83 C 1278.68 690.75 1279.12 653.87 1278.08 617.03 C 1277.96 612.82 1270.24 607.67 1265.01 604.94 C 1198.41 570.17 1156.93 516.37 1142.87 442.52 C 1124.41 345.55 1177.67 244.56 1268.8 203.77 C 1281.18 198.23 1287.26 190.78 1291.38 178.34 C 1320.96 89.14 1407.23 27.74 1501.28 28.11 C 1595.99 28.48 1680.7 89.53 1710.3 179.41 C 1713.99 190.61 1719.22 197.56 1730.49 202.92 C 1814.23 242.77 1859.95 310.2 1861.15 402.33 C 1862.32 492.37 1819.32 560.14 1739.41 602.45 C 1725.82 609.64 1721.7 617.12 1722.1 631.39 C 1722.98 663.35 1722.38 695.32 1722.38 728.87 Z M 1648.9 912.12 C 1632.89 861.73 1602.65 826.08 1554.14 808.34 C 1542.22 803.98 1539.77 798.21 1539.81 786.93 C 1540.17 698.84 1540.48 610.75 1539.63 522.66 C 1539.45 504.23 1541.05 489.53 1560.23 481.47 C 1565.48 479.26 1571.17 474.27 1573.32 469.15 C 1584.77 441.84 1606.88 439.93 1631.58 442.92 C 1634.31 443.25 1637.12 443.03 1639.88 442.92 C 1661.75 442.04 1678.26 426.03 1678.69 405.34 C 1679.12 384.35 1662.02 367.12 1639.52 366.38 C 1627.34 365.98 1614.99 367.44 1603.02 365.81 C 1596.69 364.95 1590.19 360.17 1585.19 355.6 C 1572.68 344.17 1560.69 332.12 1549.1 319.75 C 1545.15 315.53 1540.79 309.78 1540.43 304.46 C 1539.31 287.92 1540.29 271.24 1539.94 254.63 C 1539.4 229.37 1523.2 211.6 1501.04 211.39 C 1478.85 211.18 1462.16 228.91 1461.38 253.91 C 1461.04 264.98 1460.63 276.12 1461.47 287.14 C 1462.8 304.51 1461.68 319.77 1442.04 327.12 C 1437.21 328.92 1431.91 333.42 1429.86 338.03 C 1416.93 367.17 1392.76 369.52 1365.85 366.31 C 1364.21 366.11 1362.53 366.24 1360.87 366.33 C 1339.36 367.5 1322.66 384.21 1322.61 404.6 C 1322.56 425.16 1339.1 442.02 1360.72 442.83 C 1373.44 443.31 1386.31 441.97 1398.9 443.4 C 1404.76 444.06 1410.94 448.45 1415.5 452.73 C 1427.86 464.33 1438.44 478.05 1451.72 488.35 C 1458.9 493.91 1461.47 498.51 1461.45 506.95 C 1461.24 601.13 1461.08 695.32 1461.62 789.5 C 1461.68 800.66 1457.26 804.41 1447.86 807.91 C 1404.42 824.09 1374.26 854.41 1358.22 897.71 C 1354.02 909.05 1348.95 912.43 1337.27 912.38 C 1218.16 911.95 1099.04 911.73 979.92 912.49 C 962.41 912.6 949.06 910.71 941.63 892.84 C 939.42 887.52 934.74 881.51 929.69 879.38 C 900.13 866.88 899.97 842.36 902.36 816.41 C 902.56 814.22 902.46 811.97 902.28 809.77 C 900.59 788.92 882.49 772.01 862.56 772.62 C 843 773.22 826.71 789.78 825.84 810.6 C 825.34 822.77 825.11 835.01 825.9 847.15 C 826.52 856.64 822.2 861 815.01 866.72 C 801.82 877.22 791.13 890.79 778.74 902.37 C 774.17 906.64 767.97 911 762.09 911.71 C 746.79 913.54 730.97 911.74 715.89 914.4 C 697.5 917.64 685.21 935.78 686.49 953.34 C 687.86 972.09 702.83 987.12 722.15 988.61 C 729.86 989.2 737.71 989.56 745.39 988.83 C 762.95 987.16 777.98 988.96 785.38 1008.53 C 787.39 1013.84 792.31 1019.63 797.38 1021.94 C 827.01 1035.47 829.17 1060.19 825.74 1087.63 C 825.6 1088.72 825.68 1089.85 825.72 1090.95 C 826.65 1113.03 842.53 1128.7 863.86 1128.61 C 884.95 1128.52 901.42 1112.6 902.27 1090.87 C 902.75 1078.7 902.88 1066.47 902.25 1054.32 C 901.8 1045.68 905.02 1041.1 911.96 1035.54 C 925.13 1024.99 937.54 1012.83 947.65 999.36 C 953.49 991.58 958.56 988.77 967.67 988.78 C 1091.22 989 1214.77 989.06 1338.31 988.72 C 1348.75 988.69 1353.7 991.65 1357.3 1001.81 C 1372.32 1044.18 1400.5 1075.32 1442.6 1091.4 C 1458.55 1097.49 1461.66 1105.73 1461.65 1121.42 C 1461.21 1585.14 1461.29 2048.86 1461.29 2512.59 C 1461.29 2515.91 1462.23 2519.62 1461.08 2522.48 C 1458.85 2528 1456.34 2533.88 1452.36 2538.13 C 1440.76 2550.51 1428.73 2562.55 1416.13 2573.89 C 1411.08 2578.43 1404.36 2582.93 1397.93 2583.75 C 1385.38 2585.34 1372.44 2583.57 1359.78 2584.57 C 1338.23 2586.26 1322.16 2603.97 1322.64 2624.2 C 1323.13 2645.15 1339.22 2660.37 1361.78 2660.93 C 1373.41 2661.22 1385.07 2661.51 1396.67 2660.91 C 1405.86 2660.44 1411 2663.52 1416.57 2671.51 C 1425.26 2683.99 1435.62 2696.38 1447.96 2704.93 C 1458.71 2712.38 1462.72 2719.76 1461.4 2731.87 C 1460.74 2737.89 1460.82 2744.11 1461.51 2750.13 C 1463.49 2767.45 1471.8 2780.53 1488.87 2786.3 C 1514.81 2795.07 1540.09 2775.95 1539.54 2746.01 C 1539.17 2725.47 1540.27 2708.08 1562.27 2698.8 C 1567.46 2696.61 1572.98 2691.26 1574.97 2686.07 C 1584.99 2659.93 1605.85 2658.75 1628.69 2660.98 C 1631.43 2661.25 1634.23 2661.04 1637 2661 C 1661.87 2660.61 1678.75 2645.39 1678.69 2623.41 C 1678.63 2601.74 1661.33 2585.16 1637.41 2584.31 C 1626.34 2583.91 1615.22 2583.73 1604.18 2584.37 C 1594.92 2584.91 1589.74 2581.56 1584.12 2573.76 C 1575.53 2561.85 1565.47 2549.86 1553.37 2541.97 C 1542.24 2534.71 1539.8 2527.16 1539.81 2515.15 C 1540.05 2049.77 1540.02 1584.38 1540.01 1119 C 1540.01 1112.42 1540.01 1105.84 1540.01 1099.24 C 1593.09 1082.17 1628.55 1048.56 1647.01 996.92 C 1648.37 993.13 1655.92 989.29 1660.61 989.27 C 1785.82 988.86 1911.03 988.85 2036.24 989.33 C 2041.52 989.35 2047.66 993.83 2051.89 997.83 C 2065 1010.21 2077.7 1023.07 2089.86 1036.38 C 2094.12 1041.04 2098.44 1047.31 2099.11 1053.26 C 2100.54 1065.84 2098.97 1078.73 2099.75 1091.43 C 2101.14 1114 2117.21 1128.98 2138.5 1128.56 C 2159.78 1128.14 2174.89 1112.42 2175.54 1089.89 C 2175.72 1083.8 2176.16 1077.64 2175.48 1071.62 C 2173.35 1052.96 2175.53 1037.03 2195.98 1028.86 C 2201.27 1026.75 2207.1 1021.82 2209.27 1016.73 C 2221.72 987.57 2245.62 985.95 2271.94 989 C 2274.11 989.25 2276.37 988.93 2278.57 988.75 C 2298.04 987.17 2313.7 972.29 2315 954.16 C 2316.32 935.78 2303.59 917.88 2284.6 914.05 C 2273.9 911.89 2262.54 911.64 2251.61 912.39 C 2236.19 913.45 2223.83 911.74 2217.11 894.93 C 2214.41 888.18 2208.33 880.62 2201.89 877.9 C 2174.55 866.31 2172.62 844.4 2175.54 819.74 C 2175.8 817.55 2175.62 815.31 2175.55 813.1 C 2174.89 790.37 2158.34 772.6 2137.85 772.62 C 2117.66 772.64 2101.16 788.95 2099.73 811.18 C 2098.99 822.77 2098.92 834.48 2099.71 846.06 C 2100.38 855.98 2096.9 861.32 2088.5 867.28 C 2076.12 876.07 2064.31 886.96 2055.7 899.34 C 2048.72 909.37 2042.13 912.44 2030.47 912.39 C 1927.98 911.94 1825.48 912.14 1722.98 912.14 C 1698.67 912.12 1674.33 912.12 1648.9 912.12 Z"
        fill="#ec1c2b"/>
    <path
        id="path_16"
        d="M 1597.57 950.85 C 1597.66 1004.91 1555.02 1047.93 1501.22 1048.05 C 1447.06 1048.17 1404.07 1005.79 1403.74 951.95 C 1403.4 897.05 1446.37 853.68 1500.95 853.84 C 1554.95 853.99 1597.49 896.69 1597.57 950.85 Z"
        fill="#ec1c2b"/>
    <path
        id="path_17"
        d="M 2081.99 949.43 C 2082.68 918.26 2107.59 894.46 2138.95 895.03 C 2169.72 895.59 2194.36 921.11 2193.91 951.94 C 2193.46 982.46 2167.67 1007.79 2137.29 1007.53 C 2105.91 1007.27 2081.29 981.4 2081.99 949.43 Z"
        fill="#ec1c2b"/>
    <path
        id="path_18"
        d="M 865.15 895.02 C 895.71 894.96 921.41 920.24 921.68 950.64 C 921.96 981.41 895.19 1008.02 864.45 1007.53 C 833.96 1007.04 809.03 981.44 809.17 950.74 C 809.31 919.82 834.16 895.08 865.15 895.02 Z"
        fill="#ec1c2b"/>
    <path
        id="path_19"
        d="M 1501.63 2569.91 C 1532.75 2570.21 1557.21 2595 1557.03 2626.07 C 1556.86 2656.69 1531.5 2681.84 1500.79 2681.83 C 1469.43 2681.82 1443.75 2655.62 1444.49 2624.4 C 1445.23 2593.43 1470.21 2569.6 1501.63 2569.91 Z"
        fill="#ec1c2b"/>
    <path
        id="path_20"
        d="M 1557.05 402.93 C 1556.84 433.26 1531.15 459 1500.95 459.14 C 1470.18 459.28 1443.79 432.35 1444.51 401.56 C 1445.23 371.01 1470.96 346.18 1501.53 346.56 C 1532.13 346.93 1557.26 372.45 1557.05 402.93 Z"
        fill="#ec1c2b"/>
</svg>
