<?xml version="1.0" encoding="utf-8"?><!-- Generator: Adobe Illustrator 23.0.2, SVG Export Plug-In . SVG Version: 6.00 Build 0)  -->
<svg version="1.1" id="Layer_1" xmlns="http://www.w3.org/2000/svg"
    xmlns:xlink="http://www.w3.org/1999/xlink" x="0px" y="0px" viewBox="0 0 81 81"
    style="enable-background:new 0 0 81 81;" xml:space="preserve">
<style type="text/css">
	.st0{fill:#FFFFFF;}
</style>
    <path id="Path_34" class="st0" d="M25.76,18.05c7.96-4.2,15.8-4.91,23.83-1.89c1.79,0.67,3.49,1.98,4.82,3.39
	c1.58,1.69,1.23,4.37-0.25,6.2c-2.24,2.77-5.18,4.53-8.37,5.93c-1.58,0.69-3.25,1.16-4.86,1.8c-0.29,0.11-0.64,0.52-0.64,0.8
	c-0.03,1.01,0.07,2.03,0.13,3.3c6.33-3.55,12.44-6.98,18.56-10.4c0.14,0.18,0.29,0.37,0.43,0.55c-0.24,0.31-0.42,0.72-0.73,0.91
	c-4.29,2.63-8.65,5.14-12.87,7.86c-1.72,1.11-3.16,2.66-4.71,4.02c-0.05,0.04,0.05,0.26,0.12,0.53c2.67-1.63,5.29-3.22,8.17-4.97
	c-0.19,0.58-0.27,0.82-0.4,1.21l2.28-0.91l0.18,0.32c-1.17,0.82-2.34,1.64-3.51,2.46l0.17,0.25c1.86-1.12,3.68-2.31,5.59-3.33
	c2.02-1.09,4.12-2.02,6.19-3.02c0.78-0.38,1.3,0.91,2.31,0.21c1.06-0.73,2.45-0.98,3.69-1.45c0.48-0.18,0.95-0.38,1.42-0.57
	l0.19,0.38L44.27,46.03c1.69,1.11,2.99,1.94,4.25,2.81c1.74,1.21,3.49,2.41,5.18,3.7c0.57,0.44,1.49,0.8,1.11,1.92
	c-0.06,0.17,0.44,0.59,0.74,0.82c1.29,1.01,2.6,1.99,3.76,3.21c-0.53-0.29-1.08-0.54-1.58-0.88c-1.23-0.84-2.59-1.12-4.04-1.17
	c-0.3-0.01-0.6-0.29-0.87-0.49c-2.58-1.84-5.12-3.74-7.74-5.5c-1-0.67-2.19-1.05-3.43-1.62v14.05c-0.47-0.27-0.83-0.47-1.39-0.8
	c-0.14,1.6-0.28,3.11-0.41,4.61l-0.2,0c-0.07-0.83-0.08-1.68-0.24-2.5c-0.48-2.58-1.07-5.14-1.51-7.73
	c-0.19-1.14-0.09-2.33-0.17-3.5c-0.09-1.31-0.54-1.59-1.65-0.88c-1.85,1.19-3.61,2.51-5.41,3.77c-2.51,1.77-5.02,3.54-7.68,5.42
	c-0.58-0.97-1.13-1.9-1.74-2.91l-3.51,1.58c0.19-0.49,0.28-0.97,0.54-1.32c1.85-2.55,3.61-5.18,5.64-7.59
	c1.5-1.78,3.34-3.28,5.07-4.86c0.76-0.7,1.63-1.26,2.39-1.96c0.29-0.26,0.39-0.72,0.72-1.36c-3.25-1.37-6.22-3.13-9.43-3.84
	c-3.63-0.81-6.02-3.14-9.16-5.34l1.44-0.11c-0.12-0.68-0.28-1.36-0.36-2.05c-0.03-0.25,0.04-0.51,0.18-0.72
	c0.55-0.74,1.13-1.46,1.72-2.18c1.21-1.48,2.87-1.64,4.37-0.43c3.93,3.14,7.87,6.27,11.81,9.4c0.52,0.41,1.13,0.71,1.69,1.07
	l0.44-0.22c-0.3-1.12-0.3-2.48-0.97-3.28c-0.66-0.78-2-1-3.18-1.52c0.57-0.27,1.24-0.48,1.78-0.88c0.34-0.25,0.72-0.85,0.64-1.17
	c-0.52-2.1-1.17-4.18-1.83-6.43c-0.05,0.78-0.09,1.43-0.13,2.07l-0.17,0.01c-0.5-2.06-0.97-4.14-1.5-6.19
	C28.77,18.52,28.75,18.53,25.76,18.05z M40.01,29.42c0.14,0.1,0.28,0.2,0.41,0.3c1.48-1.15,2.97-2.29,4.45-3.44
	c1.12-0.88,2.12-2.02,3.38-2.59c1.62-0.73,2.35-1.79,1.26-3.17c-0.96-1.21-2.15-2.21-3.51-2.94c-2.16-1.16-4.5-2.01-7.18-1.78
	C39.23,20.44,39.62,24.93,40.01,29.42L40.01,29.42z" />
</svg>
