<?xml version="1.0" encoding="utf-8"?><!-- Generator: Adobe Illustrator 23.0.2, SVG Export Plug-In . SVG Version: 6.00 Build 0)  -->
<svg version="1.1" id="Layer_1" xmlns="http://www.w3.org/2000/svg"
    xmlns:xlink="http://www.w3.org/1999/xlink" x="0px" y="0px" viewBox="0 0 595.28 595.28"
    style="enable-background:new 0 0 595.28 595.28;" xml:space="preserve">
<style type="text/css">
	.st0{fill-rule:evenodd;clip-rule:evenodd;}
</style>
    <path class="st0" d="M291.44,82.4c0.61,2.42,0.91,6.46,0.91,12.1c0,9.68-1.01,18.26-3.03,25.72c-1.01,4.84-2.92,10.49-5.75,16.94
	c-3.23,7.06-5.45,11.6-6.66,13.62c-1.62,2.63-2.42,7.36-2.42,14.22c0,5.25-0.3,11.09-0.91,17.55c-1.41,7.46-2.12,13.92-2.12,19.36
	c0,3.83-0.2,9.08-0.61,15.73c-13.92,4.24-24.01,18.76-30.26,43.57c-2.22,7.67-4.34,18.36-6.35,32.07
	c-1.62,8.88-2.62,14.93-3.03,18.15c4.64,0.41,9.18,0.81,13.62,1.21c0.61-4.03,1.51-9.78,2.72-17.25c1.82-13.31,3.73-23.5,5.75-30.56
	c5.25-21.18,13.22-32.98,23.9-35.4h0.91c0.61-0.2,1.51-0.3,2.72-0.3c2.02,0.2,3.83,1.31,5.45,3.33c1.82,3.23,2.72,7.87,2.72,13.92
	c0,4.84-0.41,8.97-1.21,12.41c-0.61,1.62-1.41,4.44-2.42,8.47c-2.63,8.68-3.93,19.17-3.93,31.47c0,13.72,1.62,27.23,4.84,40.55
	c1.21,7.06,2.12,11.59,2.72,13.62v0.3c0.61,4.84,0.91,9.89,0.91,15.13c0,19.36-4.74,36.91-14.22,52.65
	c-8.88,13.11-21.89,26.02-39.03,38.72c-10.69,8.27-28.04,19.36-52.04,33.28c-23.6,13.11-40.95,23.7-52.04,31.77
	c-28.24-19.56-49.53-44.78-63.84-75.64c10.49-2.62,16.44-4.03,17.85-4.23c9.88-3.23,18.86-6.05,26.93-8.47
	c20.38-7.06,38.02-15.94,52.95-26.63c15.93-11.49,24.81-21.48,26.63-29.95c1.82-6.66,4.84-28.74,9.08-66.26
	c4.44-36.51,10.29-67.07,17.55-91.68c3.23-9.88,6.05-18.15,8.47-24.81v-0.91c0-0.4,0.1-0.61,0.3-0.61
	c2.82-8.68,4.64-14.12,5.45-16.34c2.62-4.64,6.86-12.81,12.71-24.51c7.06-14.12,12.81-25.42,17.25-33.89
	c14.32-26.83,23-40.65,26.02-41.45C290.73,79.78,291.24,80.79,291.44,82.4z M302.63,81.8c0.61-0.61,1.31-1.11,2.12-1.51
	c0.2,0,0.4-0.1,0.61-0.3c3.63,3.43,11.79,17.14,24.51,41.15c4.64,8.47,10.59,19.77,17.85,33.89c5.65,12.3,9.68,20.47,12.1,24.51
	c1,2.63,3.03,8.47,6.05,17.55v0.3h0.3c2.21,6.86,4.94,15.33,8.17,25.42c7.26,25.01,13.01,55.67,17.25,91.98v0.3
	c4.64,37.11,7.87,59.31,9.68,66.57c1.62,8.27,10.49,18.15,26.63,29.65c14.52,10.9,32.17,20.07,52.95,27.54
	c7.67,2.62,16.54,5.44,26.62,8.47c1.21,0.2,7.06,1.91,17.55,5.15c-14.12,30.26-35.2,54.86-63.24,73.82
	c-11.5-7.46-29.05-18.26-52.65-32.38c-23.4-14.32-40.75-25.52-52.04-33.59c-16.94-12.91-29.65-26.02-38.12-39.34
	c-10.09-15.74-15.13-33.28-15.13-52.65c0-5.04,0.5-10.09,1.51-15.13c0.4-2.21,1.31-6.86,2.72-13.92
	c2.63-13.11,3.93-26.53,3.93-40.24c0-12.1-1.11-22.69-3.33-31.77c-1.21-3.63-2.02-6.45-2.42-8.47c-0.61-3.43-0.9-7.56-0.9-12.41
	c0-5.65,0.9-10.29,2.72-13.92c1.41-2.02,3.13-3.03,5.15-3.03c1.41,0,2.63,0.1,3.63,0.3h0.3c10.69,3.03,18.56,14.72,23.6,35.1v0.61
	c2.02,7.26,3.84,17.45,5.45,30.56c1.41,6.86,2.32,12.3,2.72,16.34c5.05-1.01,9.79-0.81,14.23,0.61c-1.22-2.81-2.43-9.17-3.64-19.06
	c-2.21-13.92-4.23-24.51-6.05-31.77c-6.05-24.81-15.83-39.54-29.35-44.18c-1.21-6.86-1.82-12.1-1.82-15.73c0-5.65-0.4-12-1.21-19.06
	c-1.21-6.66-1.82-12.71-1.82-18.15c0-6.86-0.91-11.4-2.72-13.62c-0.61-2.42-2.52-7.16-5.75-14.22c-3.03-6.25-5.04-11.9-6.05-16.94
	c-1.82-7.26-2.72-15.84-2.72-25.72c0-5.65,0.31-9.68,0.91-12.1C303.14,82,303.04,81.8,302.63,81.8z M286.3,66.67
	c-7.06,3.63-18.35,19.67-33.89,48.11c-0.2,0.4-0.5,0.71-0.91,0.91c0.41-0.61,0.71-1.11,0.91-1.51
	c14.52-44.38,23.81-66.97,27.84-67.78c2.42,0.61,4.13,3.93,5.14,9.99C285.99,59.61,286.3,63.04,286.3,66.67z M308.38,56.99
	c1.21-6.25,3.13-9.58,5.75-9.99c3.63,1.01,12.71,23.6,27.23,67.78c0.41,0.4,0.71,1.01,0.91,1.82c-0.2-0.61-0.5-1.01-0.91-1.21
	c-14.92-28.64-26.12-44.88-33.59-48.71C307.78,63.04,307.98,59.81,308.38,56.99z" />
</svg>
